<?xml version="1.0" encoding="UTF-8"?>
<svg xmlns="http://www.w3.org/2000/svg" viewBox="0 0 210 36" width="210" height="36" role="img" aria-label="TON Center">
  <title>TON Center</title>
  <rect width="36" height="36" rx="8" fill="#0098EA"/>
  <g fill="#fff" transform="translate(9, 9)">
    <path d="M0,0 H7 V3 H3 V7 H0 Z"/>
    <path d="M11,0 H18 V7 H15 V3 H11 Z"/>
    <path d="M0,11 H3 V15 H7 V18 H0 Z"/>
    <path d="M15,11 H18 V18 H11 V15 H15 Z"/>
  </g>
  <g fill="#fff">
    <path d="M45.03 11.27V7.81H61.66V11.27H55.44V28.19H51.26V11.27Z"/>
    <path d="M73.48 28.46Q70.78 28.46 68.63 27.23Q66.48 26 65.23 23.66Q63.97 21.32 63.97 18.01Q63.97 14.69 65.23 12.35Q66.48 10 68.63 8.77Q70.78 7.54 73.48 7.54Q76.18 7.54 78.33 8.77Q80.48 10 81.73 12.35Q82.98 14.69 82.98 18.01Q82.98 21.34 81.73 23.67Q80.48 26 78.33 27.23Q76.18 28.46 73.48 28.46ZM73.48 24.75Q75.86 24.75 77.3 23.02Q78.74 21.29 78.74 18.01Q78.74 14.72 77.3 12.98Q75.86 11.25 73.48 11.25Q71.11 11.25 69.66 12.99Q68.21 14.73 68.21 18.01Q68.21 21.28 69.66 23.02Q71.11 24.75 73.48 24.75Z"/>
    <path d="M86.11 28.19V7.81H90.76L97.2 18.12Q97.8 19.12 98.44 20.32Q99.08 21.51 99.75 23.11Q99.64 21.61 99.57 20.1Q99.49 18.59 99.49 17.59V7.81H103.76V28.19H99.1L93.25 18.83Q92.69 17.92 92.21 17.06Q91.73 16.2 91.23 15.22Q90.73 14.24 90.1 12.97Q90.21 14.81 90.29 16.37Q90.38 17.92 90.38 18.82V28.19Z"/>
    <path d="M122.98 28.46Q120.26 28.46 118.13 27.23Q116 26 114.76 23.66Q113.52 21.32 113.52 18.01Q113.52 14.69 114.77 12.35Q116.01 10 118.16 8.77Q120.3 7.54 122.98 7.54Q125.29 7.54 127.17 8.4Q129.04 9.25 130.24 10.87Q131.45 12.49 131.75 14.77H127.52Q127.23 13.12 126.02 12.18Q124.81 11.25 123.06 11.25Q120.69 11.25 119.22 13.01Q117.76 14.77 117.76 18.01Q117.76 21.32 119.23 23.04Q120.7 24.75 123.05 24.75Q124.79 24.75 126.01 23.82Q127.23 22.88 127.54 21.21H131.76Q131.53 23.11 130.42 24.76Q129.31 26.41 127.43 27.43Q125.55 28.46 122.98 28.46Z"/>
    <path d="M141.6 28.49Q139.27 28.49 137.57 27.53Q135.88 26.57 134.97 24.81Q134.06 23.04 134.06 20.62Q134.06 18.26 134.97 16.48Q135.88 14.71 137.52 13.71Q139.17 12.71 141.4 12.71Q143.39 12.71 145.02 13.56Q146.65 14.4 147.61 16.13Q148.58 17.85 148.58 20.46V21.61H138.12Q138.19 23.48 139.16 24.44Q140.13 25.4 141.67 25.4Q142.75 25.4 143.52 24.94Q144.3 24.48 144.62 23.59L148.34 24.29Q147.78 26.19 146.03 27.34Q144.27 28.49 141.6 28.49ZM138.14 19.04H144.62Q144.47 17.55 143.67 16.67Q142.86 15.8 141.44 15.8Q139.96 15.8 139.12 16.71Q138.27 17.62 138.14 19.04Z"/>
    <path d="M155.48 19.34V28.19H151.38V12.9H155.25L155.3 16.06Q155.95 14.46 157.12 13.58Q158.3 12.71 160.06 12.71Q162.44 12.71 163.88 14.24Q165.31 15.77 165.31 18.46V28.19H161.21V19.18Q161.21 17.75 160.48 16.95Q159.75 16.14 158.45 16.14Q157.13 16.14 156.31 16.98Q155.48 17.82 155.48 19.34Z"/>
    <path d="M176.4 12.9V16.03H173.54V23.71Q173.54 25.14 174.94 25.14Q175.17 25.14 175.58 25.08Q176 25.01 176.23 24.96L176.82 28.04Q176.14 28.24 175.46 28.32Q174.79 28.4 174.17 28.4Q171.87 28.4 170.66 27.29Q169.44 26.18 169.44 24.07V16.03H167.33V12.9H169.44V9.26H173.54V12.9Z"/>
    <path d="M185.97 28.49Q183.63 28.49 181.94 27.53Q180.24 26.57 179.33 24.81Q178.42 23.04 178.42 20.62Q178.42 18.26 179.33 16.48Q180.24 14.71 181.89 13.71Q183.54 12.71 185.76 12.71Q187.76 12.71 189.39 13.56Q191.01 14.4 191.98 16.13Q192.94 17.85 192.94 20.46V21.61H182.48Q182.55 23.48 183.52 24.44Q184.49 25.4 186.04 25.4Q187.12 25.4 187.89 24.94Q188.66 24.48 188.99 23.59L192.71 24.29Q192.15 26.19 190.39 27.34Q188.63 28.49 185.97 28.49ZM182.51 19.04H188.99Q188.84 17.55 188.03 16.67Q187.23 15.8 185.8 15.8Q184.33 15.8 183.48 16.71Q182.63 17.62 182.51 19.04Z"/>
    <path d="M195.74 28.19V12.9H199.71V15.57H199.87Q200.3 14.16 201.29 13.43Q202.28 12.7 203.56 12.7Q204.26 12.7 204.89 12.83V16.5Q204.62 16.41 204.09 16.35Q203.56 16.29 203.11 16.29Q201.69 16.29 200.77 17.18Q199.85 18.07 199.85 19.49V28.19Z"/>
  </g>
</svg>
